<?xml version="1.0" encoding="UTF-8"?>
<svg xmlns="http://www.w3.org/2000/svg" xmlns:xlink="http://www.w3.org/1999/xlink" width="75pt" height="75pt" viewBox="0 0 75 75" version="1.1">
<defs>
<filter id="alpha" filterUnits="objectBoundingBox" x="0%" y="0%" width="100%" height="100%">
  <feColorMatrix type="matrix" in="SourceGraphic" values="0 0 0 0 1 0 0 0 0 1 0 0 0 0 1 0 0 0 1 0"/>
</filter>
<mask id="mask0">
  <g filter="url(#alpha)">
<rect x="0" y="0" width="75" height="75" style="fill:rgb(0%,0%,0%);fill-opacity:0.35;stroke:none;"/>
  </g>
</mask>
<clipPath id="clip1">
  <rect x="0" y="0" width="75" height="75"/>
</clipPath>
<g id="surface474" clip-path="url(#clip1)">
<path style=" stroke:none;fill-rule:nonzero;fill:rgb(0%,0%,0%);fill-opacity:1;" d="M 20.625 66.226562 C 18.375 66.226562 6.976562 66.074219 3.449219 63.375 C 2.324219 62.550781 1.648438 61.273438 1.574219 59.925781 C 1.5 58.648438 1.949219 57.300781 2.925781 56.25 C 3.824219 55.273438 4.648438 53.175781 5.476562 50.925781 C 7.351562 46.050781 9.601562 40.050781 15.898438 35.925781 C 16.800781 35.324219 18 34.726562 19.199219 34.273438 C 17.25 29.925781 17.023438 24.824219 18.449219 19.574219 C 19.050781 17.476562 20.925781 16.050781 23.101562 16.050781 C 23.25 16.050781 23.324219 16.050781 23.476562 16.050781 C 29.398438 16.5 34.5 18.074219 38.476562 20.625 C 40.726562 17.398438 43.949219 15 48.074219 13.5 C 54.074219 11.324219 59.625 10.199219 64.574219 10.199219 C 67.800781 10.199219 69.976562 10.726562 71.101562 11.023438 C 71.398438 11.101562 71.625 11.175781 71.925781 11.25 C 73.574219 11.925781 74.699219 13.425781 74.851562 15.148438 C 74.925781 16.050781 75.523438 24 66.75 37.199219 C 66.300781 37.875 65.773438 38.550781 65.25 39.148438 C 74.023438 52.273438 73.425781 60.300781 73.351562 61.125 C 73.125 62.851562 72 64.351562 70.425781 65.023438 C 70.125 65.175781 69.75 65.25 69.449219 65.324219 C 68.324219 65.625 66.148438 66.148438 63.074219 66.148438 C 58.199219 66.148438 52.648438 65.023438 46.574219 62.851562 C 44.925781 62.25 43.351562 61.5 41.925781 60.523438 C 40.800781 61.5 39.449219 62.324219 38.023438 63.148438 C 33.523438 65.699219 26.101562 66.226562 20.625 66.226562 Z M 20.625 66.226562 "/>
</g>
<mask id="mask1">
  <g filter="url(#alpha)">
<rect x="0" y="0" width="75" height="75" style="fill:rgb(0%,0%,0%);fill-opacity:0.35;stroke:none;"/>
  </g>
</mask>
<clipPath id="clip2">
  <rect x="0" y="0" width="75" height="75"/>
</clipPath>
<g id="surface497" clip-path="url(#clip2)">
<path style=" stroke:none;fill-rule:nonzero;fill:rgb(25.098041%,22.352941%,43.137255%);fill-opacity:1;" d="M 57.976562 36.523438 C 52.875 31.800781 46.574219 32.175781 42.226562 33.375 C 42.074219 30.898438 41.023438 28.199219 39.148438 25.949219 C 38.773438 25.5 38.101562 25.425781 37.574219 25.800781 C 37.125 26.175781 37.050781 26.851562 37.425781 27.375 C 39.148438 29.550781 40.125 32.101562 39.976562 34.273438 C 38.550781 35.101562 37.425781 36.300781 36.601562 37.726562 C 32.699219 34.648438 28.273438 34.351562 25.050781 34.726562 C 24.449219 34.800781 24 35.324219 24.074219 35.925781 C 24.148438 36.523438 24.675781 36.976562 25.273438 36.898438 C 28.199219 36.601562 32.398438 36.898438 35.773438 39.898438 C 35.699219 40.351562 35.625 40.875 35.625 41.324219 C 35.550781 44.625 36.074219 49.273438 39.148438 53.101562 C 39.375 53.398438 39.675781 53.476562 39.976562 53.476562 C 40.199219 53.476562 40.5 53.398438 40.648438 53.25 C 41.101562 52.875 41.175781 52.199219 40.800781 51.675781 C 38.101562 48.449219 37.648438 44.25 37.726562 41.398438 C 37.800781 38.625 39.675781 36.226562 42.300781 35.476562 L 42.449219 35.476562 C 46.351562 34.425781 51.898438 34.050781 56.324219 38.101562 C 56.773438 38.550781 57.449219 38.476562 57.898438 38.023438 C 58.425781 37.648438 58.425781 36.976562 57.976562 36.523438 Z M 57.976562 36.523438 "/>
</g>
</defs>
<g id="surface469">
<use xlink:href="#surface474" mask="url(#mask0)"/>
<path style=" stroke:none;fill-rule:nonzero;fill:rgb(94.901961%,94.901961%,94.901961%);fill-opacity:1;" d="M 19.199219 64.726562 C 16.949219 64.726562 5.550781 64.574219 2.023438 61.875 C 0.898438 61.050781 0.226562 59.773438 0.148438 58.425781 C 0.0742188 57.074219 0.523438 55.726562 1.5 54.75 C 2.324219 53.851562 3.148438 51.75 3.976562 49.5 C 5.851562 44.625 8.101562 38.625 14.398438 34.5 C 15.300781 33.898438 16.5 33.300781 17.699219 32.851562 C 15.75 28.5 15.523438 23.398438 16.949219 18.148438 C 17.550781 16.050781 19.425781 14.625 21.601562 14.625 C 21.75 14.625 21.824219 14.625 21.976562 14.625 C 27.898438 15.074219 33 16.648438 36.976562 19.199219 C 39.226562 15.976562 42.449219 13.574219 46.574219 12.074219 C 52.574219 9.898438 58.125 8.773438 63.074219 8.773438 C 66.300781 8.773438 68.476562 9.300781 69.601562 9.601562 C 69.898438 9.675781 70.125 9.75 70.425781 9.824219 C 72.074219 10.5 73.199219 12 73.351562 13.726562 C 73.5 14.625 74.101562 22.574219 65.25 35.773438 C 64.800781 36.449219 64.273438 37.125 63.75 37.726562 C 72.601562 50.925781 72 58.875 71.851562 59.773438 C 71.625 61.5 70.5 63 68.925781 63.675781 C 68.625 63.824219 68.25 63.898438 67.949219 63.976562 C 66.824219 64.273438 64.648438 64.800781 61.574219 64.800781 C 56.699219 64.800781 51.148438 63.675781 45.074219 61.5 C 43.425781 60.898438 41.851562 60.148438 40.425781 59.175781 C 39.300781 60.148438 37.949219 60.976562 36.523438 61.800781 C 32.101562 64.273438 24.601562 64.726562 19.199219 64.726562 Z M 19.199219 64.726562 "/>
<path style=" stroke:none;fill-rule:nonzero;fill:rgb(58.823532%,76.47059%,38.431373%);fill-opacity:1;" d="M 68.625 14.25 C 68.476562 14.175781 61.726562 11.625 48.226562 16.5 C 39.601562 19.648438 38.175781 27 38.324219 32.023438 C 38.398438 35.25 40.648438 38.101562 43.800781 39 C 43.800781 39 43.875 39 43.875 39 C 48.75 40.351562 56.25 40.726562 61.351562 33.074219 C 69.375 21 68.625 14.25 68.625 14.25 Z M 68.625 14.25 "/>
<path style=" stroke:none;fill-rule:nonzero;fill:rgb(58.823532%,76.47059%,38.431373%);fill-opacity:1;" d="M 67.125 59.25 C 66.976562 59.324219 60.226562 61.875 46.726562 57 C 38.101562 53.851562 36.675781 46.5 36.824219 41.476562 C 36.898438 38.25 39.148438 35.398438 42.300781 34.5 C 42.300781 34.5 42.375 34.5 42.375 34.5 C 47.25 33.148438 54.75 32.773438 59.851562 40.425781 C 67.875 52.5 67.125 59.25 67.125 59.25 Z M 67.125 59.25 "/>
<path style=" stroke:none;fill-rule:nonzero;fill:rgb(58.823532%,76.47059%,38.431373%);fill-opacity:1;" d="M 39.601562 37.949219 C 43.5 34.5 40.648438 20.773438 21.675781 19.351562 C 17.101562 35.625 33.824219 42.976562 39.601562 37.949219 Z M 39.601562 37.949219 "/>
<path style=" stroke:none;fill-rule:nonzero;fill:rgb(58.823532%,76.47059%,38.431373%);fill-opacity:1;" d="M 37.949219 40.5 C 44.25 48 41.023438 53.851562 34.273438 57.601562 C 27.523438 61.351562 7.273438 59.925781 4.949219 58.125 C 9 53.925781 9 43.800781 17.101562 38.476562 C 20.398438 36.300781 31.273438 32.625 37.949219 40.5 Z M 37.949219 40.5 "/>
<path style=" stroke:none;fill-rule:nonzero;fill:rgb(33.333334%,54.509807%,18.431373%);fill-opacity:1;" d="M 40.273438 36.675781 C 39.375 36.300781 39.148438 35.101562 39.226562 34.273438 C 39.300781 33.375 39.75 32.699219 39.976562 31.949219 C 40.273438 31.199219 40.425781 30.449219 40.425781 29.699219 C 40.425781 28.949219 40.273438 28.199219 39.824219 27.449219 L 39.898438 27.375 C 40.425781 27.976562 40.800781 28.800781 40.949219 29.625 C 41.023438 30.449219 40.949219 31.351562 40.726562 32.101562 C 40.574219 32.925781 40.351562 33.675781 40.199219 34.351562 C 39.976562 35.023438 39.898438 35.625 40.199219 36.449219 Z M 40.273438 36.675781 "/>
<path style=" stroke:none;fill-rule:nonzero;fill:rgb(33.333334%,54.509807%,18.431373%);fill-opacity:1;" d="M 39.148438 38.101562 C 38.101562 38.625 37.125 38.925781 36.148438 39.375 C 35.175781 39.75 34.125 40.050781 33.148438 40.5 C 31.199219 41.398438 29.398438 42.601562 27.675781 43.949219 L 27.601562 43.875 C 29.023438 42.148438 30.75 40.648438 32.625 39.449219 C 33.601562 38.851562 34.574219 38.25 35.699219 38.023438 C 36.824219 37.800781 38.023438 37.726562 39.148438 38.023438 Z M 39.148438 38.101562 "/>
<path style="fill-rule:nonzero;fill:rgb(33.333334%,54.509807%,18.431373%);fill-opacity:1;stroke-width:3;stroke-linecap:round;stroke-linejoin:round;stroke:rgb(25.098041%,22.352941%,43.137255%);stroke-opacity:1;stroke-miterlimit:10;" d="M 32.197917 30.5 C 35.697917 37.401042 41.197917 43 48.302083 47.598958 " transform="matrix(0.75,0,0,0.75,0,0)"/>
<path style="fill-rule:nonzero;fill:rgb(33.333334%,54.509807%,18.431373%);fill-opacity:1;stroke-width:3;stroke-linecap:round;stroke-linejoin:round;stroke:rgb(25.098041%,22.352941%,43.137255%);stroke-opacity:1;stroke-miterlimit:10;" d="M 38.901042 33.197917 C 39.098958 35.901042 38.697917 37.802083 38.401042 39 " transform="matrix(0.75,0,0,0.75,0,0)"/>
<path style="fill-rule:nonzero;fill:rgb(33.333334%,54.509807%,18.431373%);fill-opacity:1;stroke-width:3;stroke-linecap:round;stroke-linejoin:round;stroke:rgb(25.098041%,22.352941%,43.137255%);stroke-opacity:1;stroke-miterlimit:10;" d="M 40.401042 41.302083 C 39.302083 42.098958 37.901042 42.302083 36.401042 42.098958 " transform="matrix(0.75,0,0,0.75,0,0)"/>
<path style="fill:none;stroke-width:3;stroke-linecap:round;stroke-linejoin:round;stroke:rgb(25.098041%,22.352941%,43.137255%);stroke-opacity:1;stroke-miterlimit:10;" d="M 85 23.098958 C 73.098958 28.697917 61.401042 36.197917 57.197917 45.302083 " transform="matrix(0.75,0,0,0.75,0,0)"/>
<path style="fill:none;stroke-width:3;stroke-linecap:round;stroke-linejoin:round;stroke:rgb(25.098041%,22.352941%,43.137255%);stroke-opacity:1;stroke-miterlimit:10;" d="M 70.598958 26.802083 L 69.302083 32 " transform="matrix(0.75,0,0,0.75,0,0)"/>
<path style="fill:none;stroke-width:3;stroke-linecap:round;stroke-linejoin:round;stroke:rgb(25.098041%,22.352941%,43.137255%);stroke-opacity:1;stroke-miterlimit:10;" d="M 62.5 38.401042 L 78.598958 37.5 " transform="matrix(0.75,0,0,0.75,0,0)"/>
<path style="fill:none;stroke-width:3;stroke-linecap:round;stroke-linejoin:round;stroke:rgb(25.098041%,22.352941%,43.137255%);stroke-opacity:1;stroke-miterlimit:10;" d="M 53.098958 49.697917 C 64.802083 55 76.697917 65.197917 83.802083 75.697917 " transform="matrix(0.75,0,0,0.75,0,0)"/>
<path style="fill:none;stroke-width:3;stroke-linecap:round;stroke-linejoin:round;stroke:rgb(25.098041%,22.352941%,43.137255%);stroke-opacity:1;stroke-miterlimit:10;" d="M 60.401042 53.697917 C 60 59.598958 61 65 63.802083 69.598958 " transform="matrix(0.75,0,0,0.75,0,0)"/>
<path style="fill:none;stroke-width:3;stroke-linecap:round;stroke-linejoin:round;stroke:rgb(25.098041%,22.352941%,43.137255%);stroke-opacity:1;stroke-miterlimit:10;" d="M 68 58.197917 C 69.901042 57.5 72.802083 58 76.197917 59.401042 " transform="matrix(0.75,0,0,0.75,0,0)"/>
<path style="fill:none;stroke-width:3;stroke-linecap:round;stroke-linejoin:round;stroke:rgb(25.098041%,22.352941%,43.137255%);stroke-opacity:1;stroke-miterlimit:10;" d="M 46 53.197917 C 36.098958 56.901042 26 64.302083 15.901042 73.098958 " transform="matrix(0.75,0,0,0.75,0,0)"/>
<path style="fill:none;stroke-width:3;stroke-linecap:round;stroke-linejoin:round;stroke:rgb(25.098041%,22.352941%,43.137255%);stroke-opacity:1;stroke-miterlimit:10;" d="M 37.197917 59.802083 C 38.5 63.697917 36.901042 68.197917 35 72.802083 " transform="matrix(0.75,0,0,0.75,0,0)"/>
<path style="fill:none;stroke-width:3;stroke-linecap:round;stroke-linejoin:round;stroke:rgb(25.098041%,22.352941%,43.137255%);stroke-opacity:1;stroke-miterlimit:10;" d="M 27.302083 63.197917 C 25.401042 62.098958 21.5 61.697917 18.598958 62.802083 " transform="matrix(0.75,0,0,0.75,0,0)"/>
<use xlink:href="#surface497" mask="url(#mask1)"/>
<path style="fill:none;stroke-width:3;stroke-linecap:round;stroke-linejoin:round;stroke:rgb(25.098041%,22.352941%,43.137255%);stroke-opacity:1;stroke-miterlimit:10;" d="M 76.302083 49.802083 C 78.197917 48.5 80.098958 46.598958 81.697917 44.098958 C 92.5 28 91.5 19 91.5 19 C 91.302083 18.901042 82.401042 15.5 64.302083 22 C 56.197917 24.901042 52.802083 30.697917 51.598958 36.197917 C 47.901042 31.197917 40.802083 26.697917 28.802083 25.802083 C 26 35.802083 29.197917 43.197917 34.197917 47.697917 C 29.197917 48.098958 24.802083 49.901042 22.697917 51.302083 C 11.901042 58.401042 11.901042 71.802083 6.5 77.5 C 9.697917 79.901042 36.697917 81.697917 45.598958 76.802083 C 49 74.901042 51.802083 72.598958 53.401042 69.901042 C 55.401042 72.302083 58.197917 74.5 62.197917 75.901042 C 80.197917 82.401042 89.197917 79 89.401042 78.901042 C 89.401042 78.901042 90.401042 69.901042 79.598958 53.802083 C 78.598958 52.197917 77.5 50.901042 76.302083 49.802083 Z M 76.302083 49.802083 " transform="matrix(0.75,0,0,0.75,0,0)"/>
<path style=" stroke:none;fill-rule:nonzero;fill:rgb(25.098041%,47.058824%,27.058825%);fill-opacity:1;" d="M 41.175781 36.523438 C 43.648438 35.699219 47.925781 32.023438 39.976562 27.449219 C 33.226562 36.300781 38.773438 37.273438 41.175781 36.523438 Z M 41.175781 36.523438 "/>
<path style=" stroke:none;fill-rule:nonzero;fill:rgb(25.098041%,47.058824%,27.058825%);fill-opacity:1;" d="M 40.425781 37.574219 C 41.398438 39.898438 37.648438 46.199219 28.273438 43.125 C 31.050781 34.875 39.226562 34.648438 40.425781 37.574219 Z M 40.425781 37.574219 "/>
</g>
</svg>
